<?xml version="1.0" standalone="no"?>
<!DOCTYPE svg PUBLIC "-//W3C//DTD SVG 20010904//EN"
 "http://www.w3.org/TR/2001/REC-SVG-20010904/DTD/svg10.dtd">
<svg version="1.0" xmlns="http://www.w3.org/2000/svg"
 width="936.000000pt" height="936.000000pt" viewBox="0 0 936.000000 936.000000"
 preserveAspectRatio="xMidYMid meet">
<metadata>
Created by potrace 1.11, written by Peter Selinger 2001-2013
</metadata>
<g transform="translate(0.000000,936.000000) scale(0.100000,-0.100000)"
fill="#000000" stroke="none">
<path d="M4445 9351 c6 -11 4 -13 -7 -8 -9 3 -21 0 -27 -6 -8 -8 -14 -8 -19
-2 -9 13 -35 19 -28 6 3 -5 -20 -9 -52 -10 -31 0 -84 -3 -117 -5 -33 -2 -70
-4 -83 -5 -15 -1 -21 -5 -16 -13 5 -7 3 -8 -7 -2 -18 11 -39 14 -39 5 0 -4
-10 -7 -22 -8 -13 0 -32 -4 -42 -8 -15 -6 -17 -5 -11 5 6 10 4 11 -6 4 -8 -4
-23 -10 -34 -11 -11 -2 -27 -6 -35 -10 -8 -3 -24 -7 -35 -8 -17 -1 -106 -16
-127 -21 -5 -1 -22 -2 -39 -3 -16 0 -28 -4 -26 -8 3 -5 -5 -9 -16 -9 -58 -3
-77 -9 -77 -24 0 -9 -3 -11 -8 -5 -10 14 -32 17 -32 5 0 -5 -5 -10 -11 -10 -5
0 -8 4 -4 10 3 5 -7 3 -21 -5 -15 -8 -31 -12 -36 -9 -4 3 -8 0 -8 -7 0 -6 -8
-9 -20 -6 -11 3 -27 -1 -35 -9 -9 -10 -16 -11 -20 -3 -5 7 -13 5 -26 -6 -10
-10 -31 -18 -48 -19 -16 0 -27 -4 -25 -8 4 -7 -44 -13 -68 -9 -5 0 -8 -4 -8
-9 0 -5 -9 -10 -20 -10 -11 0 -20 -5 -20 -11 0 -5 -4 -8 -9 -5 -4 3 -24 -3
-44 -13 -20 -10 -34 -14 -31 -9 4 6 -4 4 -17 -3 -27 -15 -23 -14 -66 -24 -18
-4 -33 -11 -33 -16 0 -5 -3 -8 -7 -7 -9 1 -40 -9 -66 -23 -10 -5 -22 -7 -26
-4 -5 3 -12 -2 -15 -11 -4 -9 -9 -14 -12 -11 -4 3 -25 -4 -48 -15 -41 -22 -47
-24 -67 -27 -5 0 -7 -7 -3 -13 5 -8 0 -7 -11 2 -10 8 -16 10 -12 3 5 -7 -4
-14 -23 -18 -16 -4 -30 -10 -30 -15 0 -5 -10 -12 -22 -15 -41 -12 -78 -30 -78
-37 0 -5 -9 -8 -21 -8 -13 0 -18 -4 -13 -12 5 -8 2 -9 -9 -5 -10 3 -17 3 -17
-1 0 -5 -16 -14 -35 -22 -19 -8 -35 -17 -35 -22 0 -4 -7 -8 -16 -8 -9 0 -12
-5 -8 -12 4 -7 3 -8 -5 -4 -6 4 -18 2 -26 -4 -8 -7 -15 -9 -15 -5 0 5 -9 -2
-20 -15 -11 -13 -20 -19 -20 -15 0 4 -8 1 -18 -8 -10 -10 -22 -14 -25 -10 -4
3 -7 1 -7 -5 0 -7 -7 -12 -15 -12 -8 0 -15 -4 -15 -9 0 -5 -8 -11 -17 -15 -26
-8 -57 -29 -66 -44 -5 -7 -12 -10 -18 -7 -5 4 -9 1 -9 -5 0 -6 -4 -9 -9 -5 -6
3 -14 -3 -20 -12 -6 -10 -11 -14 -11 -10 0 4 -6 2 -14 -5 -8 -7 -12 -16 -9
-20 2 -5 -5 -8 -17 -8 -11 0 -32 -12 -45 -26 -14 -15 -25 -24 -25 -20 0 6 -11
-2 -45 -31 -7 -7 -21 -13 -29 -13 -9 0 -16 -6 -16 -14 0 -8 -9 -18 -20 -21
-11 -3 -20 -11 -20 -17 0 -6 -3 -9 -6 -5 -4 3 -20 -7 -36 -23 -16 -17 -34 -30
-39 -30 -5 0 -9 -8 -10 -17 0 -11 -3 -13 -6 -5 -3 8 -11 4 -25 -13 -11 -14
-24 -22 -30 -19 -7 4 -8 2 -4 -4 4 -7 1 -12 -9 -12 -9 0 -13 -4 -10 -10 3 -5
1 -10 -4 -10 -6 0 -20 -9 -30 -19 -11 -11 -29 -25 -41 -31 -12 -6 -19 -14 -16
-17 3 -3 -16 -21 -42 -39 -26 -19 -43 -34 -38 -34 5 0 -6 -12 -25 -28 -19 -15
-58 -52 -88 -82 -30 -30 -58 -54 -63 -52 -4 1 -7 -4 -6 -10 2 -7 -3 -12 -10
-10 -6 1 -11 -1 -10 -6 2 -4 -7 -20 -20 -36 -12 -16 -22 -26 -22 -22 0 4 -6 1
-14 -6 -8 -7 -13 -15 -13 -18 1 -3 -6 -16 -16 -30 -9 -13 -17 -21 -17 -17 0 4
-6 2 -14 -5 -8 -7 -12 -15 -11 -18 2 -3 -10 -16 -26 -29 -16 -13 -27 -27 -24
-31 3 -5 -4 -11 -15 -15 -18 -6 -21 -10 -20 -30 0 -3 -13 -18 -29 -33 -16 -15
-32 -37 -36 -50 -4 -13 -9 -21 -12 -19 -6 6 -43 -30 -43 -41 0 -5 -9 -17 -20
-27 -11 -10 -20 -23 -20 -29 0 -6 -12 -22 -25 -35 -14 -13 -24 -26 -21 -28 3
-3 -7 -16 -21 -29 -13 -12 -22 -27 -19 -32 3 -6 -1 -13 -10 -16 -8 -3 -12 -10
-9 -16 3 -5 -1 -10 -10 -10 -9 0 -13 -4 -10 -10 3 -5 2 -10 -4 -10 -5 0 -16
-12 -23 -27 -36 -70 -62 -106 -71 -97 -3 3 -5 -1 -4 -8 1 -32 -4 -49 -13 -43
-5 3 -10 -1 -10 -9 0 -9 -5 -16 -11 -16 -5 0 -8 -4 -5 -9 4 -5 3 -11 -2 -13
-4 -1 -18 -20 -30 -41 -12 -21 -16 -35 -10 -32 7 4 3 -2 -9 -13 -12 -11 -19
-22 -16 -26 4 -3 1 -6 -5 -6 -7 0 -12 -9 -12 -19 0 -11 -7 -26 -15 -35 -8 -8
-15 -19 -15 -25 0 -6 -4 -11 -10 -11 -5 0 -9 -3 -8 -7 0 -5 -7 -26 -17 -48
-10 -22 -18 -43 -17 -47 1 -5 -2 -8 -8 -8 -5 0 -6 -7 -3 -17 4 -11 3 -14 -5
-9 -7 4 -12 2 -12 -4 0 -6 -4 -9 -8 -6 -5 3 -9 -1 -9 -9 0 -8 4 -12 8 -9 5 3
-3 -14 -16 -38 -13 -23 -22 -45 -19 -50 3 -4 0 -8 -6 -8 -6 0 -9 -4 -6 -8 3
-5 -3 -18 -13 -28 -9 -11 -16 -25 -13 -32 2 -6 -2 -12 -9 -12 -7 0 -9 -3 -6
-7 4 -3 2 -12 -4 -20 -6 -7 -8 -13 -4 -13 4 0 0 -11 -9 -25 -9 -14 -14 -25
-11 -25 3 0 -2 -14 -11 -31 -9 -17 -18 -43 -20 -57 -3 -15 -8 -29 -12 -32 -4
-3 -8 -14 -10 -25 -2 -11 -10 -31 -19 -43 -8 -13 -12 -26 -9 -29 3 -3 -1 -18
-9 -34 -8 -15 -15 -37 -15 -49 0 -11 -6 -20 -12 -20 -9 0 -8 -4 2 -10 10 -6
11 -10 3 -10 -7 0 -13 -9 -13 -20 0 -11 -4 -20 -8 -20 -5 0 -8 -13 -7 -30 1
-16 -2 -27 -7 -24 -4 3 -8 -7 -8 -21 0 -18 -4 -24 -12 -19 -8 5 -7 0 2 -11 8
-10 10 -16 4 -12 -7 4 -14 -3 -16 -18 -3 -14 -1 -22 4 -18 6 3 5 -4 -1 -16 -7
-12 -9 -27 -5 -33 4 -7 3 -8 -4 -4 -11 6 -18 -27 -13 -56 0 -5 -4 -8 -9 -8 -5
0 -9 -3 -8 -7 1 -5 -2 -24 -5 -43 -12 -59 -15 -84 -16 -113 -1 -16 -4 -26 -9
-23 -4 2 -7 -13 -6 -34 0 -22 -3 -37 -8 -34 -7 4 -13 -52 -9 -78 0 -5 -5 -8
-12 -8 -8 0 -8 -3 2 -9 12 -8 12 -12 2 -25 -7 -8 -10 -20 -6 -26 3 -5 2 -10
-4 -10 -7 0 -7 -8 -1 -26 7 -16 7 -23 0 -19 -6 3 -10 3 -11 -2 0 -4 -2 -50 -5
-102 -3 -52 -9 -100 -14 -106 -5 -6 -5 -17 0 -25 6 -9 4 -20 -3 -29 -10 -12
-9 -13 3 -6 12 7 13 6 4 -6 -6 -8 -10 -37 -9 -66 0 -28 -2 -50 -6 -47 -9 5 -6
-17 4 -33 4 -6 3 -14 -3 -18 -15 -9 -12 -28 2 -19 10 6 10 4 1 -7 -17 -17 -17
-32 0 -23 9 6 9 4 2 -7 -16 -22 -20 -73 -4 -64 9 6 10 4 3 -6 -13 -21 -13
-200 0 -192 6 4 5 -1 -3 -11 -12 -14 -12 -19 -2 -26 8 -5 10 -13 5 -21 -11
-19 -13 -49 -2 -55 4 -3 8 -10 8 -15 0 -6 -5 -7 -12 -3 -7 5 -8 3 -3 -6 5 -7
9 -28 10 -46 2 -18 6 -38 10 -45 6 -8 4 -10 -5 -4 -9 5 -11 4 -6 -4 8 -12 20
-133 20 -208 1 -24 5 -43 9 -43 5 0 5 -4 2 -10 -3 -5 0 -10 7 -10 8 0 9 -3 3
-8 -12 -9 -16 -42 -4 -42 4 0 6 -9 4 -20 -2 -11 0 -20 6 -20 5 0 9 -5 9 -11 0
-5 -6 -7 -12 -3 -10 6 -10 4 0 -7 6 -7 12 -28 12 -47 0 -21 4 -31 11 -26 8 5
8 1 0 -13 -7 -14 -7 -23 0 -30 6 -6 12 -29 12 -52 1 -22 5 -41 9 -41 4 0 5 -7
2 -15 -4 -8 -2 -15 4 -15 5 0 8 -14 6 -31 -3 -22 0 -28 9 -23 7 5 5 0 -3 -11
-8 -10 -10 -16 -4 -12 8 4 14 -9 20 -41 4 -26 7 -50 6 -54 -1 -5 2 -8 7 -8 5
0 9 -12 9 -27 0 -15 5 -29 11 -31 6 -2 11 -8 11 -13 0 -6 -5 -7 -11 -3 -8 5
-8 1 0 -14 6 -11 11 -30 11 -42 0 -12 4 -19 9 -15 6 3 8 -4 6 -15 -2 -11 0
-20 6 -20 5 0 9 -12 9 -26 0 -17 4 -23 13 -18 7 5 6 0 -3 -11 -8 -10 -10 -16
-4 -12 7 4 12 -3 13 -18 3 -48 4 -54 13 -49 4 3 8 -5 8 -18 0 -13 4 -28 10
-34 5 -5 11 -22 12 -36 1 -15 6 -24 10 -22 4 3 10 -8 13 -23 4 -15 14 -48 23
-73 9 -25 15 -48 14 -52 -1 -5 2 -8 8 -8 5 0 10 -6 10 -14 0 -8 5 -27 12 -43
6 -15 11 -31 10 -35 -1 -5 2 -8 8 -8 5 0 10 -9 10 -20 0 -11 4 -20 8 -20 8 0
32 -60 35 -85 0 -5 7 -16 14 -23 7 -7 13 -20 13 -28 0 -8 9 -23 20 -34 11 -11
20 -31 20 -45 0 -14 5 -25 11 -25 5 0 7 -4 4 -10 -3 -5 1 -10 9 -10 9 0 13 -6
10 -13 -2 -7 4 -22 16 -32 11 -10 20 -31 20 -47 0 -19 5 -28 16 -28 8 0 12 -4
9 -10 -3 -5 -2 -10 3 -10 9 0 25 -37 23 -52 -1 -5 3 -8 9 -8 5 0 10 -9 10 -20
0 -11 6 -19 12 -18 7 2 14 -7 16 -20 2 -12 8 -20 13 -17 5 4 9 0 9 -8 0 -8 7
-28 15 -43 8 -16 15 -24 15 -19 0 6 10 -6 22 -25 12 -19 21 -41 19 -49 -1 -7
2 -10 8 -6 6 3 11 -1 11 -10 0 -8 7 -18 15 -21 8 -4 15 -12 15 -18 0 -7 9 -22
20 -34 11 -12 20 -26 20 -32 0 -5 5 -10 10 -10 6 0 10 -6 10 -13 0 -7 11 -24
24 -39 14 -14 22 -28 20 -31 -3 -3 4 -10 15 -17 12 -6 19 -15 16 -21 -4 -5 -2
-9 4 -9 5 0 13 -9 16 -20 4 -11 11 -18 16 -15 5 4 9 -1 9 -9 0 -9 8 -16 18
-16 14 0 15 -2 2 -10 -13 -8 -12 -10 4 -10 11 0 17 -2 14 -5 -6 -6 37 -60 80
-101 12 -11 22 -26 22 -32 0 -6 8 -16 18 -21 10 -5 24 -21 32 -35 7 -14 19
-26 27 -26 7 0 13 -5 13 -10 0 -6 18 -29 40 -51 22 -23 37 -46 34 -51 -4 -7
-2 -8 4 -4 7 4 12 3 12 -3 0 -5 9 -13 20 -16 11 -3 20 -11 20 -16 0 -11 37
-49 48 -49 5 0 14 -11 20 -25 6 -14 16 -25 21 -25 13 0 61 -48 61 -61 0 -6 4
-8 9 -4 6 3 15 -4 21 -15 6 -11 18 -20 26 -20 8 0 12 -5 9 -10 -3 -6 -2 -10 3
-10 6 0 20 -11 33 -25 13 -13 29 -25 34 -25 6 0 19 -13 30 -29 10 -16 22 -28
26 -25 4 2 12 -3 19 -11 7 -8 19 -15 27 -15 8 0 11 -5 8 -10 -3 -6 1 -10 9
-10 9 0 16 -8 16 -17 0 -15 2 -16 10 -3 8 13 10 12 10 -3 0 -10 4 -15 10 -12
5 3 10 0 10 -7 0 -16 37 -41 49 -33 5 2 11 -4 14 -14 2 -11 19 -27 37 -36 18
-10 42 -26 53 -36 12 -10 25 -19 29 -19 5 0 18 -9 30 -20 12 -11 28 -20 35
-20 7 0 13 -7 13 -15 0 -8 9 -15 21 -15 11 0 17 -5 14 -10 -3 -5 3 -10 14 -10
12 0 21 -4 21 -10 0 -5 7 -10 15 -10 8 0 15 -5 15 -11 0 -5 4 -8 9 -5 5 4 11
3 13 -2 6 -14 66 -52 82 -52 9 0 16 -4 16 -9 0 -5 12 -16 26 -26 18 -12 24
-13 19 -4 -3 8 0 6 8 -4 9 -10 18 -18 21 -18 12 1 41 -13 51 -24 6 -6 29 -18
53 -25 29 -9 38 -16 30 -22 -9 -5 -6 -8 10 -8 12 0 22 -5 22 -11 0 -5 5 -7 10
-4 5 3 10 1 10 -6 0 -7 3 -9 7 -6 3 4 12 2 20 -4 7 -6 13 -8 13 -3 0 4 7 -1
16 -12 8 -10 12 -12 8 -4 -5 10 -1 9 14 -3 11 -11 25 -16 31 -13 5 4 16 -3 24
-14 7 -11 17 -17 20 -13 4 3 7 1 7 -5 0 -6 6 -9 14 -6 7 3 20 -2 29 -10 8 -8
17 -12 20 -9 3 3 13 -2 22 -11 9 -9 21 -14 26 -11 5 4 9 2 9 -3 0 -10 26 -21
70 -29 13 -2 28 -10 32 -16 4 -7 8 -8 8 -3 0 4 11 1 25 -8 14 -9 25 -14 25
-10 0 4 6 1 14 -5 8 -7 27 -14 42 -17 16 -3 31 -8 34 -12 3 -4 14 -9 25 -10
11 -2 24 -8 30 -13 5 -5 19 -9 32 -9 13 0 23 -5 23 -11 0 -6 9 -9 19 -6 11 3
28 0 38 -7 10 -6 32 -13 48 -15 17 -2 33 -7 36 -13 3 -5 12 -8 20 -7 8 2 23
-2 35 -8 11 -7 31 -13 45 -15 13 -2 30 -7 37 -11 6 -5 12 -5 12 -1 0 3 8 0 17
-7 14 -12 16 -12 8 0 -6 11 -5 12 6 5 8 -4 23 -10 34 -11 10 -2 23 -9 27 -16
6 -9 8 -8 8 3 0 10 3 11 8 4 4 -6 15 -10 25 -8 9 1 17 -1 17 -6 0 -4 32 -11
70 -15 42 -4 70 -12 70 -19 0 -6 5 -4 10 4 8 12 10 12 10 1 0 -8 3 -11 7 -8 3
4 13 1 21 -6 13 -10 14 -9 7 3 -6 12 -5 13 6 2 7 -6 32 -12 55 -12 24 0 46 -5
49 -10 4 -6 15 -8 25 -5 10 3 21 1 25 -5 5 -8 12 -7 23 2 10 9 13 9 9 1 -5 -7
-1 -12 10 -12 16 0 101 -7 178 -14 17 -1 36 -6 44 -11 10 -6 12 -5 7 2 -4 7
-3 12 3 12 5 0 12 -6 14 -12 4 -10 6 -10 6 0 1 8 6 10 13 6 7 -5 33 -9 58 -10
25 -1 45 -3 45 -4 0 -1 23 -3 52 -4 36 -2 50 1 46 8 -5 8 -3 8 8 0 20 -16 362
-17 353 -2 -5 7 -2 8 7 3 15 -10 69 -14 69 -6 0 3 26 6 58 6 31 0 60 4 65 10
4 6 11 5 17 -5 9 -13 11 -13 19 -1 8 13 12 13 27 0 12 -9 15 -10 10 -1 -6 9 1
12 26 11 18 0 58 2 88 6 30 4 70 8 88 9 17 0 32 4 32 9 0 4 4 6 9 3 4 -3 43 1
86 9 42 8 81 12 86 9 5 -3 11 1 14 8 3 8 18 13 33 12 15 -1 32 1 37 5 6 3 27
7 47 8 20 1 46 7 58 13 11 6 25 8 30 5 6 -3 10 -2 10 2 0 8 21 13 67 16 12 0
19 5 16 10 -3 4 1 8 8 6 29 -3 50 1 44 11 -4 7 3 7 20 0 14 -5 24 -6 21 -1 -5
7 47 24 57 19 1 -1 13 5 27 12 14 8 29 13 34 12 4 -2 14 3 22 9 8 7 17 9 20 6
4 -3 28 3 54 13 26 10 50 16 54 13 3 -3 8 2 12 11 3 9 10 13 15 10 5 -3 9 0 9
7 0 10 3 10 12 1 9 -9 15 -7 25 6 8 9 11 11 8 3 -5 -9 1 -8 19 4 14 10 26 14
26 11 0 -4 13 0 30 9 16 8 31 15 32 14 2 -2 14 4 28 11 14 8 34 15 45 17 11 2
21 8 23 13 2 5 10 6 18 3 8 -3 14 0 14 6 0 6 6 11 14 11 8 0 17 7 20 16 5 13
9 14 21 4 10 -8 15 -9 15 -2 0 6 18 16 41 22 22 6 42 17 45 25 3 8 13 11 21 8
12 -5 14 -3 8 7 -6 10 -4 12 8 7 9 -3 17 -1 19 4 3 9 22 15 51 18 5 1 5 5 2
11 -3 6 1 7 9 4 9 -3 16 -1 16 5 0 6 9 11 21 11 11 0 18 4 15 9 -5 8 19 19 35
17 4 -1 17 8 30 19 14 13 20 14 15 5 -4 -9 -2 -8 7 3 8 9 19 17 24 17 6 0 16
6 23 14 6 8 19 12 27 9 9 -4 14 -2 10 3 -3 6 3 16 15 23 16 10 19 10 13 -1 -4
-8 -1 -7 7 2 7 8 27 22 43 30 38 19 56 36 47 44 -3 4 1 4 9 1 9 -3 26 5 42 21
15 15 27 22 27 15 0 -6 9 -3 21 7 11 9 33 27 47 39 15 13 31 23 35 23 5 0 18
10 29 22 11 13 17 16 13 8 -4 -10 -2 -9 8 2 8 10 17 15 20 11 4 -3 9 2 13 11
3 9 12 16 20 16 8 0 14 5 14 10 0 6 6 10 14 10 8 0 17 9 21 20 3 11 9 19 13
19 4 -1 18 2 30 6 18 6 20 10 10 16 -10 7 -9 9 4 9 9 0 22 8 27 18 6 9 11 13
11 9 0 -4 11 2 25 15 40 38 54 48 65 48 5 0 10 7 10 16 0 8 4 13 9 10 5 -3 11
1 15 9 3 8 13 15 22 15 10 0 15 3 11 6 -9 9 19 34 38 34 11 0 15 5 11 16 -3 8
-2 12 3 9 6 -3 13 1 18 8 4 8 21 22 36 32 15 10 25 20 23 23 -7 6 20 32 33 32
6 0 20 14 33 30 12 17 28 30 35 30 7 0 13 4 13 10 0 5 32 42 71 81 40 40 66
68 59 64 -9 -5 -11 -4 -6 3 4 7 14 12 22 12 8 0 14 9 14 22 0 12 3 19 6 15 6
-6 35 17 35 27 0 3 24 31 54 63 30 32 55 61 55 65 0 4 10 18 23 30 12 13 33
38 46 56 13 17 29 29 35 25 6 -3 8 -3 4 2 -9 10 10 46 34 63 10 7 18 18 18 23
0 5 5 15 11 22 9 11 21 28 61 92 7 11 22 28 32 37 10 10 16 18 12 18 -4 0 2
10 13 22 11 11 18 25 15 30 -3 4 -1 8 3 8 11 0 44 56 37 63 -3 3 4 8 15 12 14
4 21 15 21 31 0 13 5 24 10 24 6 0 10 7 10 15 0 8 7 15 17 15 9 0 14 3 10 6
-3 3 3 22 13 42 11 19 17 39 14 44 -3 5 -2 7 3 6 4 -2 9 1 10 5 1 5 9 14 19
21 9 7 14 18 10 24 -3 6 -2 13 4 17 5 3 17 23 27 43 9 20 20 39 23 42 6 4 21
36 24 50 1 3 7 15 14 28 7 12 10 28 6 35 -4 6 -4 9 0 5 9 -8 36 13 30 23 -2 3
5 23 16 44 11 21 17 42 14 46 -3 5 -1 9 4 9 14 0 32 48 26 67 -5 14 -4 15 4 4
7 -10 13 -4 22 25 6 22 14 46 17 54 4 8 5 18 5 23 -1 4 2 7 6 7 4 0 9 12 10
26 1 14 8 32 17 40 8 8 12 21 9 29 -4 8 -1 15 5 15 6 0 11 11 11 25 0 14 5 25
12 25 6 0 8 3 5 7 -4 3 -2 12 4 20 9 10 8 13 -2 13 -9 0 -10 3 -4 8 6 4 17 16
25 26 13 18 13 19 0 11 -12 -7 -13 -6 -3 6 7 9 14 32 15 51 2 20 6 34 11 31 4
-2 7 5 7 16 0 12 5 21 11 21 8 0 8 5 -1 15 -7 8 -8 15 -2 15 11 0 25 37 22 63
-1 9 3 17 8 17 5 0 9 6 10 13 5 60 14 95 33 131 7 13 7 16 0 11 -13 -7 -9 30
4 42 4 5 5 1 0 -7 -5 -8 -4 -12 0 -8 5 5 10 20 11 35 4 33 14 108 21 143 2 14
4 33 4 43 0 9 4 15 9 12 10 -6 8 15 -4 34 -6 10 -5 12 2 7 12 -7 13 0 15 66 1
15 4 25 8 22 4 -2 8 8 8 23 0 16 2 38 5 50 3 14 0 23 -7 23 -8 0 -8 3 1 9 9 5
15 38 18 92 8 149 10 164 19 179 5 9 4 15 -3 18 -7 2 -12 8 -12 13 0 6 6 7 13
3 9 -6 9 -4 -1 8 -7 9 -9 19 -4 22 5 3 8 30 7 60 -2 35 1 53 8 49 6 -4 7 -1 2
6 -11 19 -12 151 0 151 7 0 7 3 0 8 -11 8 -15 173 -5 167 4 -2 7 2 7 10 0 8
-5 13 -11 12 -13 -3 -15 26 -1 36 6 4 5 10 -3 16 -8 4 -14 12 -14 16 0 4 6 12
14 16 7 5 8 9 3 9 -6 0 -11 15 -12 33 -1 44 -11 171 -13 177 -1 3 -2 24 -2 48
0 23 -4 42 -9 42 -5 0 -9 5 -9 11 0 5 5 7 11 3 8 -5 8 -1 0 14 -6 11 -8 28 -5
36 3 9 2 16 -3 16 -6 0 -10 14 -11 31 0 17 -7 38 -14 47 -9 12 -10 14 0 8 6
-4 12 -3 12 3 0 5 -5 13 -11 17 -8 4 -7 9 2 15 10 6 11 9 2 9 -7 0 -13 10 -13
23 0 13 -3 26 -6 30 -5 5 -14 77 -17 135 0 6 -4 12 -8 12 -4 0 -6 11 -5 25 2
13 -1 22 -5 19 -5 -3 -9 6 -9 20 0 13 -6 27 -12 29 -10 4 -10 6 0 6 8 1 10 6
5 14 -4 6 -8 20 -9 30 -1 9 -3 19 -4 22 -3 5 -3 6 -15 50 -4 17 -13 36 -19 44
-9 12 -8 13 4 6 11 -6 10 -3 -2 12 -10 11 -18 24 -18 29 0 5 5 2 10 -6 5 -8
10 -10 10 -4 0 6 -7 17 -15 24 -10 8 -13 21 -9 33 4 13 2 17 -5 13 -7 -5 -11
4 -11 23 0 18 -5 31 -12 31 -10 0 -9 3 1 9 9 6 10 11 2 15 -6 4 -11 16 -11 27
0 10 -4 19 -10 19 -5 0 -10 9 -10 20 0 11 -5 20 -11 20 -6 0 -9 7 -6 15 4 8 2
17 -4 21 -6 3 -8 11 -6 18 3 7 -3 29 -13 49 -19 39 -54 134 -55 152 -1 6 -5 9
-11 8 -5 -1 -11 10 -12 24 -1 14 -10 31 -19 38 -9 7 -17 23 -18 36 -3 35 -9
53 -20 61 -5 4 -10 15 -10 25 -1 10 -6 17 -11 16 -6 -1 -11 3 -12 10 -3 31
-28 87 -39 87 -7 0 -13 11 -13 24 0 13 -7 29 -15 36 -8 7 -12 16 -9 21 3 5 0
9 -5 9 -6 0 -11 9 -11 21 0 11 -4 17 -10 14 -5 -3 -10 3 -10 14 0 10 -5 21
-10 23 -6 2 -12 14 -15 28 -3 14 -12 30 -20 36 -8 6 -15 15 -15 21 0 5 -9 19
-20 31 -12 12 -18 22 -14 22 3 0 1 7 -6 15 -7 8 -9 15 -5 15 5 0 -2 8 -13 19
-12 10 -22 23 -22 30 0 6 -5 11 -11 11 -5 0 -8 4 -4 9 3 5 -6 22 -20 37 -13
14 -22 30 -19 35 3 5 -2 9 -10 9 -9 0 -15 6 -13 13 1 6 -3 11 -8 10 -6 -1 -12
7 -12 19 -1 11 -11 28 -22 37 -11 10 -18 20 -16 23 3 3 -8 19 -25 36 -16 18
-30 36 -30 40 0 5 -9 17 -20 27 -11 10 -17 22 -13 28 3 5 2 8 -3 5 -5 -3 -15
0 -22 8 -10 11 -10 14 0 15 7 0 3 5 -8 11 -12 5 -28 22 -35 36 -8 14 -26 38
-41 55 -16 16 -25 34 -21 40 3 6 1 7 -5 3 -6 -3 -14 0 -19 7 -4 8 -17 19 -28
25 -11 6 -14 12 -7 12 7 0 -10 23 -38 51 -28 28 -58 61 -66 75 -9 13 -21 24
-28 24 -6 0 -17 14 -25 31 -7 16 -15 28 -18 25 -7 -7 -33 20 -33 34 0 6 -4 9
-9 5 -5 -3 -13 4 -16 16 -4 11 -9 18 -12 15 -7 -6 -43 32 -43 46 0 4 -7 8 -15
8 -8 0 -15 5 -15 10 0 6 -6 10 -14 10 -7 0 -16 9 -19 21 -4 13 -10 18 -18 13
-7 -4 -10 -3 -6 3 4 6 -1 17 -10 24 -14 12 -16 12 -8 -1 5 -8 -14 7 -41 33
-98 95 -144 134 -145 123 0 -6 -4 -1 -9 12 -5 12 -21 27 -36 32 -15 6 -42 26
-61 45 -19 19 -42 35 -50 35 -8 0 -11 5 -8 10 3 6 -1 10 -9 10 -9 0 -16 5 -16
10 0 6 -4 10 -10 10 -5 0 -21 10 -36 23 -14 12 -28 21 -31 19 -2 -2 -13 6 -22
17 -10 12 -24 21 -31 21 -7 0 -23 10 -35 23 -37 35 -52 46 -59 40 -3 -4 -6 -1
-6 6 0 7 -4 9 -10 6 -5 -3 -10 -1 -10 4 0 6 -3 10 -7 9 -15 -3 -43 14 -37 23
3 5 -2 9 -10 9 -9 0 -16 5 -16 10 0 6 -7 10 -16 10 -9 0 -39 16 -66 35 -27 20
-53 33 -58 30 -6 -4 -10 -1 -10 4 0 6 -5 11 -10 11 -6 0 -20 9 -32 20 -12 11
-30 20 -39 20 -10 0 -21 5 -24 10 -3 6 -15 10 -26 10 -11 0 -17 5 -14 10 3 6
-1 10 -9 10 -9 0 -16 5 -16 11 0 5 -4 8 -9 5 -5 -3 -14 1 -21 9 -7 8 -21 15
-32 15 -11 0 -39 13 -62 28 -22 15 -62 34 -89 41 -26 8 -47 18 -47 22 0 5 -9
9 -20 9 -11 0 -20 5 -20 11 0 5 -4 7 -10 4 -5 -3 -10 -2 -10 4 0 5 -18 12 -40
16 -22 4 -40 11 -40 17 0 6 -9 8 -20 5 -11 -3 -20 -1 -20 4 0 5 -7 9 -16 9 -8
0 -13 4 -10 8 4 7 -12 11 -56 13 -10 0 -18 4 -18 7 0 4 -10 9 -22 9 -13 1 -28
9 -34 18 -7 9 -15 12 -18 7 -4 -7 -15 -6 -30 1 -13 7 -23 14 -21 17 3 5 -30
11 -77 13 -9 1 -14 5 -12 9 5 7 -26 12 -63 11 -7 -1 -11 3 -8 7 3 5 1 11 -5
15 -5 3 -10 0 -10 -7 -1 -10 -4 -9 -13 2 -7 9 -20 14 -29 12 -10 -2 -18 1 -18
7 0 6 -5 11 -11 11 -5 0 -8 -4 -4 -10 3 -5 -6 -3 -20 4 -15 8 -39 13 -55 12
-16 -1 -27 2 -24 6 3 4 -5 8 -18 8 -13 0 -30 6 -37 13 -11 10 -12 9 -6 -3 7
-12 6 -13 -7 -3 -8 7 -18 10 -21 6 -4 -3 -7 -2 -7 4 0 5 -6 10 -12 10 -7 0
-35 4 -63 8 -27 4 -63 8 -80 9 -16 0 -35 7 -41 15 -8 11 -13 11 -18 2 -5 -8
-12 -9 -19 -3 -11 9 -51 18 -117 27 -14 1 -50 6 -80 10 -30 4 -73 8 -96 9 -22
2 -46 6 -52 10 -6 3 -13 3 -16 -2 -7 -12 -69 -2 -78 12 -5 8 -8 7 -8 -1 0 -7
-7 -13 -16 -13 -8 0 -12 5 -8 11 4 7 -1 7 -16 -1 -14 -8 -25 -8 -29 -2 -7 11
-40 10 -60 -3 -10 -5 -12 -4 -7 3 5 8 -2 11 -23 8 -17 -2 -33 -1 -36 2 -9 9
-45 9 -39 0 8 -12 -10 -10 -24 4 -7 7 -12 8 -12 3 0 -6 -11 -10 -24 -10 -13 0
-22 3 -19 8 2 4 -1 7 -6 7 -6 0 -11 -5 -11 -11 0 -5 -4 -7 -10 -4 -15 9 -81
14 -75 6 5 -8 -102 -4 -115 4 -5 3 -12 0 -16 -6 -4 -7 -3 -9 4 -5 6 3 13 2 16
-3 9 -14 -19 -7 -40 9 -15 13 -16 13 -9 1z"/>
</g>
</svg>
